<?xml version="1.0" encoding="utf-8"?>
<svg width="494" height="69" viewBox="0 0 494 69" fill="none" xmlns="http://www.w3.org/2000/svg">
<path d="M269.2 27.2626C269.2 22.8639 266.118 17.5467 259.515 17.5467C255.749 17.5467 251.788 19.7219 252.375 24.8457C252.717 28.1327 257.95 29.3412 260.836 30.2113C269.249 32.8215 272.623 35.9635 272.623 42.1507C272.623 48.1447 267.439 52.5918 258.195 52.5918C253.695 52.5918 248.658 51.7217 245.625 48.9664L244.549 40.0722H245.381C246.75 47.9996 250.223 51.0933 258.537 51.2866C263.868 51.4316 265.434 48.4347 265.385 44.761C265.385 41.039 261.374 39.4438 256.581 37.897C249.733 35.7218 245.527 33.1599 245.527 26.6826C245.527 20.1086 251.299 16.0482 259.858 16.0482C263.184 16.0482 267.243 17.2567 269.982 18.8518V27.2626H269.2ZM239.365 19.4319C241.223 18.1268 242.642 17.015 243.62 16.0482C245.332 14.3564 246.163 12.7612 246.163 11.3111C246.163 10.8761 246.065 10.5377 245.87 10.2477C245.625 10.006 245.332 9.86095 244.94 9.86095C244.207 9.95763 243.767 10.006 243.571 10.006C242.25 10.006 241.125 9.57093 240.245 8.70084C239.365 7.78242 238.924 6.62231 238.924 5.22051C238.924 3.67369 239.414 2.4169 240.343 1.45014C241.272 0.48338 242.544 0 244.158 0C245.919 0 247.435 0.628394 248.609 1.93352C249.831 3.19031 250.418 4.97882 250.467 6.47729C250.516 9.08755 249.44 12.3745 246.505 15.4198C244.94 17.0633 242.739 18.7068 239.903 20.302L239.365 19.4319ZM231.49 16.6766C228.702 16.6766 225.279 18.1751 221.561 22.7189V16.6766L209.383 18.4651V19.4319C209.383 19.4319 212.073 19.1419 213.149 19.0452V47.6613C213.149 48.8697 212.953 50.3682 210.948 50.3682H208.943V51.7217H226.355H226.404L226.355 50.3682H224.251C222.686 50.3682 221.561 49.7398 221.561 47.6613V27.601C222.051 23.2022 224.838 20.6403 226.11 20.6403C228.556 20.6403 228.507 22.3805 230.659 23.3956C233.593 24.5074 235.99 22.5255 235.99 20.302C235.99 18.2234 234.523 16.6766 231.49 16.6766ZM68.7672 17.8851C78.3535 17.8367 77.9622 30.4529 77.9622 30.5013C77.9622 32.2898 76.2504 32.0964 76.2504 32.0964H61.9687C61.9687 32.0964 60.3058 32.1931 60.3058 30.4046C60.3058 30.3563 60.3058 30.3563 60.3058 30.3079C60.4525 26.1509 61.5775 17.9334 68.7672 17.8851ZM61.9198 33.7399H74.0984H82.0707H85.2987C85.2987 33.7399 85.69 30.9363 85.0053 27.601C84.614 25.6675 83.8314 23.4923 82.2663 21.6071C82.2174 21.5588 82.2174 21.5588 82.2174 21.5588C79.8697 18.7551 75.908 16.5316 69.1096 16.5316C56.8332 16.5316 50.426 24.3624 50.426 34.9484C50.426 45.9695 56.0996 52.8335 69.2074 52.8335C77.9133 52.8335 82.5108 48.7731 84.8096 43.1175L83.8803 42.6341C80.799 48.628 77.033 50.9966 70.9681 50.9966C62.1155 50.9483 60.2569 42.7308 60.1591 35.6735C60.208 35.6251 60.208 35.5768 60.208 35.4801C60.208 34.3683 60.9416 33.7399 61.9198 33.7399ZM189.672 17.8851C199.259 17.8367 198.867 30.4529 198.867 30.5013C198.867 32.2898 197.155 32.0964 197.155 32.0964H182.825C182.825 32.0964 181.162 32.1931 181.162 30.4046C181.162 30.3563 181.162 30.3563 181.162 30.3079C181.309 26.1509 182.434 17.9334 189.672 17.8851ZM182.776 33.7399H194.955H202.927H206.204C206.204 33.7399 206.595 30.9363 205.861 27.601C205.47 25.6675 204.688 23.4923 203.122 21.6071C203.122 21.5588 203.074 21.5588 203.074 21.5588C200.775 18.7551 196.764 16.5316 189.966 16.5316C177.689 16.5316 171.282 24.3624 171.282 34.9484C171.282 45.9695 176.956 52.8335 190.064 52.8335C198.769 52.8335 203.367 48.7731 205.666 43.1175L204.736 42.6341C201.655 48.628 197.889 50.9966 191.873 50.9966C182.972 50.9483 181.162 42.7308 181.064 35.6735C181.064 35.6251 181.064 35.5768 181.064 35.4801C181.064 34.3683 181.798 33.7399 182.776 33.7399ZM19.8574 25.1841H16.2381C16.2381 25.1841 14.2328 25.3775 14.2328 23.1056C14.2328 23.1056 14.1838 23.0572 14.1838 23.0089V4.59211C14.8686 4.39876 16.9717 4.35042 18.6835 4.35042C24.2593 4.35042 30.7154 6.09059 30.7154 15.5648C30.7154 22.6222 26.9004 25.1841 19.8574 25.1841ZM112.933 43.3592C112.933 48.0963 107.846 49.8848 105.352 49.6431C100.852 49.1598 99.1891 45.7761 99.1891 41.764C99.1891 38.4771 100.265 36.5435 103.933 35.1901C106.917 34.03 111.172 32.7248 112.933 31.7581V43.3592ZM126.187 49.2081C125.307 49.9815 124.329 50.3199 123.497 50.3682C121.883 50.5132 121.541 49.0631 121.492 48.8214C121.394 46.9846 121.345 26.4892 121.345 26.4892C121.345 22.3322 118.704 16.5799 106.819 16.5799C97.8685 16.5799 91.8037 20.7853 91.5103 24.7491C91.3635 27.021 92.8308 28.7611 95.0318 28.6644C95.1785 28.6644 95.2763 28.6644 95.423 28.6161C95.472 28.6161 95.5209 28.6161 95.5698 28.6161C95.7165 28.5678 95.8632 28.5678 96.01 28.5194C96.1567 28.4711 96.2545 28.4228 96.3523 28.4228C98.5044 27.5527 98.9446 24.8941 98.9446 24.8941C99.7271 20.0603 101.488 17.5467 106.672 17.6917C112.786 17.8851 112.933 21.1237 112.933 26.6342V27.3593C112.884 28.036 112.541 30.3563 108.433 31.9998C105.303 32.9182 101.243 33.2082 97.3794 33.8849C91.7059 34.9 90.1408 39.3955 90.1408 42.7308C90.1408 47.9996 94.1514 52.3984 101.488 52.5918C107.259 52.7368 110.585 49.6431 112.933 48.0963C114.009 50.8033 115.036 51.8184 118.019 52.5918C119.78 53.0751 123.546 52.6401 126.774 49.9815L126.187 49.2081ZM156.511 41.3773C156.511 42.8275 156.511 43.9393 155.924 45.0994C154.457 48.5314 151.229 49.4981 147.463 49.4981C140.469 49.4981 138.561 42.1024 138.561 34.03C138.561 25.0391 140.616 18.8035 148.099 18.8035C151.718 18.8035 154.555 20.592 155.876 23.3956C156.462 24.5557 156.511 26.0542 156.511 27.891V41.3773ZM167.858 50.2232C165.609 50.2715 164.875 49.1114 164.875 47.2746V44.9544V27.311V0.290028L150.887 1.78851V3.0453L156.511 2.70693V3.8187V21.3654C154.8 18.6101 151.523 16.6283 148.099 16.4833C141.936 16.1932 136.996 18.4168 133.817 21.3654C130.345 24.4107 128.29 29.0995 128.29 35.1417C128.29 45.3411 133.719 52.4467 144.235 52.4467C148.246 52.4467 152.794 50.9966 156.511 47.7096V51.5283H169.032V50.2232H167.858ZM18.8303 26.8759C22.9876 26.8759 30.3241 29.4862 32.4761 41.039C34.7749 53.5102 41.6712 56.5555 56.7843 55.9271V55.202C37.1225 53.7035 48.2251 28.2777 28.5633 26.3926C35.1662 25.3775 39.8615 21.7038 39.8126 14.9364C39.8126 8.45915 36.1933 2.94862 23.0365 2.94862H0V4.15707H2.54331C4.40188 4.15707 4.9888 4.68879 4.9888 6.81566V47.7096C4.9888 50.0298 4.40188 50.5616 2.44549 50.5616H0V51.6733V51.7217H19.4172V51.6733V50.5616H17.0695C14.8197 50.5616 14.1838 49.9815 14.2328 47.7096L14.1838 29.0995C14.1838 29.0511 14.2328 29.0028 14.2328 29.0028C14.2328 27.746 14.7219 26.8759 16.2381 26.8759H18.8303ZM461.953 27.2626C461.953 22.8639 458.872 17.5467 452.269 17.5467C448.503 17.5467 444.541 19.7219 445.128 24.8457C445.471 28.1327 450.704 29.3412 453.59 30.2113C462.002 32.8215 465.377 35.9635 465.377 42.1507C465.377 48.1447 460.192 52.5918 450.948 52.5918C446.449 52.5918 441.411 51.7217 438.379 48.9664L437.303 40.0722H438.134C439.504 47.9996 442.976 51.0933 451.291 51.2866C456.622 51.4316 458.187 48.4347 458.138 44.761C458.138 41.039 454.128 39.4438 449.334 37.897C442.487 35.7218 438.281 33.1599 438.281 26.6826C438.281 20.1086 444.052 16.0482 452.611 16.0482C455.937 16.0482 459.997 17.2567 462.736 18.8518V27.2626H461.953ZM416.712 17.8851C426.298 17.8367 425.907 30.4529 425.907 30.5013C425.907 32.2898 424.195 32.0964 424.195 32.0964H409.864C409.864 32.0964 408.201 32.1931 408.201 30.4046C408.201 30.3563 408.201 30.3563 408.201 30.3079C408.348 26.1509 409.473 17.9334 416.712 17.8851ZM409.815 33.7399H421.994H429.966H433.243C433.243 33.7399 433.634 30.9363 432.901 27.601C432.509 25.6675 431.727 23.4923 430.162 21.6071C430.162 21.5588 430.113 21.5588 430.113 21.5588C427.814 18.7551 423.804 16.5316 417.005 16.5316C404.729 16.5316 398.322 24.3624 398.322 34.9484C398.322 45.9695 403.995 52.8335 417.103 52.8335C425.809 52.8335 430.406 48.7731 432.705 43.1175L431.776 42.6341C428.695 48.628 424.928 50.9966 418.913 50.9966C410.011 50.9483 408.201 42.7308 408.103 35.6735C408.103 35.6251 408.103 35.5768 408.103 35.4801C408.103 34.3683 408.837 33.7399 409.815 33.7399ZM354.058 16.6766L341.88 18.4651V19.4319C341.88 19.4319 344.57 19.1419 345.646 19.0452V47.6613C345.646 48.8697 345.45 50.3682 343.445 50.3682H341.439V51.7217H358.851H358.9L358.851 50.3682H356.748C355.183 50.3682 354.058 49.7398 354.058 47.6613V16.6766ZM303.632 4.78546C304.718 4.56311 305.872 4.54377 306.958 4.54377C322.316 4.54377 327.696 13.1479 327.696 27.4077C327.696 41.6674 322.316 50.3199 306.958 50.3199H306.029C304.464 50.3199 303.632 49.4015 303.632 47.5646V4.78546ZM349.656 11.5044C352.786 11.5044 354.89 9.61926 354.89 6.96067C354.987 4.20541 352.738 2.22355 349.705 2.22355C346.477 2.22355 344.374 4.20541 344.374 6.96067C344.374 9.61926 346.428 11.5044 349.656 11.5044ZM389.518 15.8549C391.963 15.7582 391.914 17.45 394.017 18.4651C397.001 19.6252 399.349 17.6434 399.349 15.4682C399.349 13.438 397.881 11.8428 394.898 11.8428C392.159 11.8428 388.784 13.3413 385.165 17.6434H385.067C383.013 16.8216 380.274 16.3382 377.975 16.3382C366.97 16.3382 362.471 20.6403 362.471 27.7944C362.568 37.0269 371.225 38.4287 371.225 38.4287C367.166 38.8638 363.889 41.329 363.889 44.1809C363.889 48.2413 369.269 50.0298 372.399 50.3199V50.4649C369.367 50.7549 362.666 50.9483 362.275 57.9573C361.786 64.7729 369.367 68.7367 377.682 68.8333C391.376 68.93 396.707 62.8878 396.707 55.1053C396.707 47.5163 390.202 44.906 382.719 44.906H376.263C371.323 44.906 369.856 43.2142 369.856 42.0057C369.856 40.0722 372.057 39.2505 373.035 38.8638C374.356 39.0571 376.85 39.1538 377.682 39.1538C384.333 39.1538 392.55 36.4469 392.55 27.7944C392.55 24.1207 390.545 20.737 386.485 18.2718C387.561 16.6766 388.784 15.8549 389.518 15.8549ZM377.975 37.752C373.769 37.752 371.421 34.2233 371.177 27.9877C370.981 21.3654 374.356 17.8851 377.73 17.8851C380.763 17.8851 384.236 20.1086 384.138 27.9877C384.04 34.03 382.279 37.6553 377.975 37.752ZM378.415 50.9483C385.458 50.9483 389.322 52.7368 389.078 58.5373C388.735 65.1113 383.991 67.1898 379.393 67.1898H379.296C372.937 67.1898 369.073 63.8545 368.976 58.199C368.878 55.9271 369.563 53.6552 371.177 52.5918C372.693 51.4316 374.258 50.9483 378.415 50.9483ZM308.376 51.7217C324.028 51.7217 337.233 43.9393 337.233 27.4077C337.233 10.6344 324.81 2.94862 308.376 2.94862H289.399V4.15707H291.943C293.801 4.15707 294.388 4.68879 294.388 6.81566V47.7096C294.388 50.0298 293.801 50.5616 291.845 50.5616H289.399V51.6733V51.7217H308.376ZM481.664 18.0301V40.9423C481.664 47.5163 484.696 49.4981 487.582 49.4981C489.489 49.4981 491.055 49.0631 493.011 48.338L493.5 49.4014C490.419 51.0449 487.191 52.5918 482.74 52.5918C478.583 52.5918 473.202 50.1265 473.202 44.0359V18.0301H466.551V16.5316H474.132L479.61 6.13893H481.664V16.5316H492.571V18.0301H481.664Z" fill="black"/>
</svg>
